<?xml version="1.0" encoding="UTF-8" standalone="no"?>
<!-- Created with Inkscape (http://www.inkscape.org/) -->

<svg
   xmlns:dc="http://purl.org/dc/elements/1.1/"
   xmlns:cc="http://creativecommons.org/ns#"
   xmlns:rdf="http://www.w3.org/1999/02/22-rdf-syntax-ns#"
   xmlns:svg="http://www.w3.org/2000/svg"
   xmlns="http://www.w3.org/2000/svg"
   xmlns:xlink="http://www.w3.org/1999/xlink"
   xmlns:sodipodi="http://sodipodi.sourceforge.net/DTD/sodipodi-0.dtd"
   xmlns:inkscape="http://www.inkscape.org/namespaces/inkscape"
   width="600"
   height="600"
   id="svg6952"
   version="1.1"
   inkscape:version="0.48.5 r10040"
   sodipodi:docname="Joint Cannabis v2.svg">
  <title
     id="title3857">Animation of a Joint Cannabis</title>
  <defs
     id="defs6954">
    <linearGradient
       id="linearGradient7520">
      <stop
         style="stop-color:#4a2707;stop-opacity:1;"
         offset="0"
         id="stop7522" />
      <stop
         id="stop7538"
         offset="0.19169946"
         style="stop-color:#7b510a;stop-opacity:1;" />
      <stop
         id="stop7530"
         offset="0.25508675"
         style="stop-color:#ad7b0d;stop-opacity:1;" />
      <stop
         style="stop-color:#ad7b0d;stop-opacity:1;"
         offset="0.31833297"
         id="stop7540" />
      <stop
         style="stop-color:#f9f9f9;stop-opacity:1;"
         offset="0.35276344"
         id="stop7534" />
      <stop
         style="stop-color:#f9f9f9;stop-opacity:1;"
         offset="1"
         id="stop7524" />
    </linearGradient>
    <linearGradient
       id="linearGradient3879">
      <stop
         style="stop-color:#453a3a;stop-opacity:1;"
         offset="0"
         id="stop3881" />
      <stop
         style="stop-color:#999999;stop-opacity:0;"
         offset="1"
         id="stop3883" />
    </linearGradient>
    <radialGradient
       inkscape:collect="always"
       xlink:href="#linearGradient7520"
       id="radialGradient3929"
       gradientUnits="userSpaceOnUse"
       gradientTransform="matrix(0.72598,0.79198,-1.1143,1.0214,658.08,-309.25)"
       cx="400.96"
       cy="478.31"
       fx="400.96"
       fy="478.31"
       r="62.456" />
    <linearGradient
       inkscape:collect="always"
       xlink:href="#linearGradient3879"
       id="linearGradient3186"
       gradientUnits="userSpaceOnUse"
       gradientTransform="translate(12.318,-1.6798)"
       x1="210"
       y1="350"
       x2="194.44"
       y2="260.29" />
  </defs>
  <sodipodi:namedview
     id="base"
     pagecolor="#ffffff"
     bordercolor="#666666"
     borderopacity="1.0"
     inkscape:pageopacity="0.0"
     inkscape:pageshadow="2"
     inkscape:zoom="0.97035"
     inkscape:cx="179.13"
     inkscape:cy="228.14"
     inkscape:current-layer="layer3"
     inkscape:document-units="px"
     showgrid="false"
     inkscape:window-width="1366"
     inkscape:window-height="705"
     inkscape:window-x="-8"
     inkscape:window-y="-8"
     inkscape:window-maximized="1" />
  <metadata
     id="metadata6957">
    <rdf:RDF>
      <cc:Work
         rdf:about="">
        <dc:format>image/svg+xml</dc:format>
        <dc:type
           rdf:resource="http://purl.org/dc/dcmitype/StillImage" />
        <dc:title>Animation of a Joint Cannabis</dc:title>
        <dc:subject>
          <rdf:Bag>
            <rdf:li>joint</rdf:li>
            <rdf:li>smoke</rdf:li>
            <rdf:li>cannabis</rdf:li>
            <rdf:li>leaf</rdf:li>
            <rdf:li>marijuana</rdf:li>
            <rdf:li>plant</rdf:li>
            <rdf:li>weed</rdf:li>
          </rdf:Bag>
        </dc:subject>
        <dc:creator>
          <cc:Agent>
            <dc:title>Aukipa</dc:title>
          </cc:Agent>
        </dc:creator>
        <dc:description>An animated lit  joint with smoke</dc:description>
        <dc:publisher>
          <cc:Agent>
            <dc:title>http://www.portaloha.com/creative-dept</dc:title>
          </cc:Agent>
        </dc:publisher>
      </cc:Work>
    </rdf:RDF>
  </metadata>
  <g
     id="layer1"
     inkscape:label="Layer 1"
     inkscape:groupmode="layer">
    <g
       id="TheLitJoint"
       transform="matrix(1.5,0,0,1.5,-135.64,-353.78)">
      <g
         id="RolledJoint">
        <path
           style="color:#000000;fill:#d40000;fill-opacity:1;fill-rule:nonzero;stroke:#000000;stroke-width:0.5;stroke-linecap:butt;stroke-linejoin:round;stroke-miterlimit:4;stroke-opacity:1;stroke-dasharray:none;stroke-dashoffset:0;marker:none;visibility:visible;display:inline;overflow:visible;enable-background:accumulate"
           d="m 407.65,480.98 18.47,-0.79 c 2.04,0.19 3.91,-0.69 5.42,1.69 l 1.65,2.59 0.6,2.44 -0.73,2.3 1.06,1.7 -1.31,2.62 1.66,1.28 -0.71,2.77 0.48,2.02 -1.37,2.34 0.12,2.64 -1.66,1.89 -0.18,2.19 -2.15,1.47 -0.95,1.76 -2.89,0.72 -2.89,0.72 c -3.38,0.85 -6.84,2.56 -11.22,2.8 -7.34,0 -27.44,-1.95 -29.7,-2.74 -5.33,-1.85 -8.62,-3.25 -10.77,-3.46"
           id="path7506"
           inkscape:connector-curvature="0"
           sodipodi:nodetypes="ccscccccccccccccccscsc">
          <animate
             repeatCount="1"
             dur="600ms"
             begin="0ms;animateGlow.end+2000ms"
             attributeName="fill"
             id="animateGlow"
             values="d40000;ff0000;d40000" />
        </path>
        <path
           style="color:#000000;fill:url(#radialGradient3929);fill-opacity:1;fill-rule:nonzero;stroke:#000000;stroke-width:0.5;stroke-linecap:butt;stroke-linejoin:round;stroke-miterlimit:4;stroke-opacity:1;stroke-dasharray:none;stroke-dashoffset:0"
           d="m 306.78,517.45 c 4.67,0 11.05,-0.36 18.32,0.61 17.48,2.34 46.6,2.53 57.37,1.7 19.21,-1.48 36.92,-4.53 39.46,-6.5 l -2.58,-0.36 -1.68,-1.4 -3.24,0.16 -2.35,-0.89 c 0,-1.47 0.28,-3.07 -0.36,-4.16 -0.64,-1.08 -2.19,-1.65 -2.26,-2.81 l -1.39,-2.82 1.13,-2.96 -0.15,-3.48 3.26,-3.19 0.27,-4.07 3.26,-2.55 1.46,-2.41 2.53,0.69 3.72,-2.14 4.11,-1.08 3.53,1 c -7.35,-3.87 -15.54,-4.54 -33.41,-2.91 l -28.88,-0.79"
           id="path7496"
           inkscape:connector-curvature="0"
           sodipodi:nodetypes="csscccccscccccccccccccc" />
        <path
           style="color:#000000;fill:#f9f9f9;fill-opacity:1;fill-rule:nonzero;stroke:#000000;stroke-width:0.5;stroke-linecap:butt;stroke-linejoin:round;stroke-miterlimit:4;stroke-opacity:1;stroke-dasharray:none;stroke-dashoffset:0"
           d="m 251.37,508.32 c 6.29,0.1 14,1.04 18.79,3.18 10.09,4.52 36.31,6.11 53.74,6.27 11.2,-11.75 47.91,-40.1 75.23,-39.89 -21.72,-0.49 -36.56,-8.74 -67.84,-4 l -32.24,0.94"
           id="path7498"
           inkscape:connector-curvature="0"
           sodipodi:nodetypes="cscccc" />
        <path
           style="color:#000000;fill:#f9f9f9;fill-opacity:1;fill-rule:nonzero;stroke:#000000;stroke-width:0.5;stroke-linecap:butt;stroke-linejoin:round;stroke-miterlimit:4;stroke-opacity:1;stroke-dasharray:none;stroke-dashoffset:0"
           d="m 190.25,497.87 c 9.43,0.15 24.83,6.85 29.68,8.62 9.68,3.52 30.63,6.12 50.24,4.98 6.72,-9.65 34.86,-34.75 61.79,-37.59 -15.92,-2.4 -37.3,-1.62 -52.74,0.1 l -19.79,0.56"
           id="path7500"
           inkscape:connector-curvature="0"
           sodipodi:nodetypes="cscccc" />
        <path
           style="color:#000000;fill:#f9f9f9;fill-opacity:1;fill-rule:nonzero;stroke:#000000;stroke-width:0.5;stroke-linecap:butt;stroke-linejoin:round;stroke-miterlimit:4;stroke-opacity:1;stroke-dasharray:none;stroke-dashoffset:0"
           d="m 155.32,495.71 c 7.19,0.81 14.3,1.67 20.72,3.25 13.21,3.25 28.38,8.22 44.43,7.47 2.24,-6.08 37.91,-33.32 58.96,-32.48 -15.63,-0.88 -32.93,0.68 -52.89,4.24 -4.13,0.73 -9.4,0.56 -14.61,1.28 l -15.47,0.87"
           id="path7502"
           inkscape:connector-curvature="0"
           sodipodi:nodetypes="csccscc" />
        <path
           style="color:#000000;fill:#f9f9f9;fill-opacity:1;fill-rule:nonzero;stroke:#000000;stroke-width:0.5;stroke-linecap:butt;stroke-linejoin:round;stroke-miterlimit:4;stroke-opacity:1;stroke-dasharray:none;stroke-dashoffset:0"
           d="m 226.5,478.17 c -32.39,3.08 -50.36,17.05 -50.36,20.82 -18.98,0.23 -35.19,-2.99 -51.64,-5.91 -4.52,-0.72 -6.57,-11.85 4.64,-11.41 6.92,-0.1 14.7,-0.34 24.64,-1.12 0,0 16.92,-2.21 25.62,-2.54 15.55,-0.59 47.1,0.16 47.1,0.16 z"
           id="path7504"
           inkscape:connector-curvature="0"
           sodipodi:nodetypes="cccccsc" />
        <path
           style="color:#000000;fill:none;stroke:#000000;stroke-width:0.5;stroke-linecap:butt;stroke-linejoin:round;stroke-miterlimit:4;stroke-opacity:1;stroke-dasharray:none;stroke-dashoffset:0"
           d="m 428.2,479.44 c -17.11,-1.11 -45.07,17.33 -48.11,40.68"
           id="path7508"
           inkscape:connector-curvature="0"
           sodipodi:nodetypes="cc" />
      </g>
      <g
         transform="matrix(0.74114,0,0,1.5,253.03,-68.447)"
         id="Smoke"
         style="display:inline">
        <path
           sodipodi:nodetypes="cccccccccccc"
           inkscape:connector-curvature="0"
           inkscape:label="#path3845"
           id="Smoke1"
           d="m 218.44,281.32 c -3.95,8.76 -5.88,15.33 -5.29,24.04 2.2,8.39 8.45,8.45 12.48,15.63 3.01,5.01 5.1,9.49 5.64,18.41 -0.19,4.87 -1.81,11.37 -3.85,17.17 -1.15,3.96 -7.74,13.34 -11.97,14.79 -0.35,6.55 20.47,3.26 28.81,2.19 3.51,-3.46 6.25,-9.28 7.52,-15.71 -0.17,-6.59 -0.76,-11.76 -2.05,-18.16 -3.6,-8.48 -5.56,-10.44 -10.81,-18.05 -3.34,-5.36 -13.14,-12.67 -18.64,-18.66 -3.34,-5.61 -2.06,-10.82 -1.84,-21.65 z"
           style="opacity:0.7;color:#000000;fill:url(#linearGradient3186);stroke:none;stroke-width:0.47421;marker:none;visibility:visible;display:inline;overflow:visible;enable-background:accumulate">
          <animate
             id="animate3594"
             dur="3000ms"
             begin="0ms"
             attributeName="d"
             values="m 218.43845,281.324 c -3.95082,8.75296 -5.87511,15.32733 -5.29178,24.03513 2.20515,8.39141 8.45425,8.45055 12.48457,15.6315 3.01141,5.00475 5.09904,9.48731 5.63635,18.40733 -0.19054,4.86983 -1.80291,11.37577 -3.84796,17.17045 -1.15023,3.95682 -7.74128,13.34467 -11.97343,14.79413 -0.34889,6.54787 20.47159,3.25251 28.81633,2.18801 3.50506,-3.46553 6.24806,-9.28245 7.51916,-15.7143 -0.17472,-6.58187 -0.75751,-11.75454 -2.05061,-18.15408 -3.60107,-8.48112 -5.56595,-10.43727 -10.8134,-18.04789 -3.33591,-5.36708 -13.13381,-12.67079 -18.63868,-18.66717 -3.33509,-5.6045 -2.05584,-10.8169 -1.84055,-21.64311 z;  m 214.21561,283.00379 c -3.95082,8.75296 -5.87511,15.32733 -5.29178,24.03513 2.20515,8.39141 8.45425,8.45055 12.48457,15.6315 3.01141,5.00475 5.09904,9.48731 5.63635,18.40733 -0.19054,4.86983 -1.80291,11.37577 -3.84796,17.17045 -1.15023,3.95682 -7.74128,13.34467 -11.97343,14.79413 0.35634,5.65858 17.16272,5.31912 28.81633,2.18801 3.50506,-3.46553 6.24806,-9.28245 7.51916,-15.7143 -0.17472,-6.58187 -0.75751,-11.75454 -2.05061,-18.15408 -3.60107,-8.48112 -5.56595,-10.43727 -10.8134,-18.04789 -3.33591,-5.36708 -13.13381,-12.67079 -18.63868,-18.66717 -3.33509,-5.6045 -2.05584,-10.8169 -1.84055,-21.64311 z;   m 218.43845,281.324 c -3.95082,8.75296 -5.87511,15.32733 -5.29178,24.03513 2.20515,8.39141 8.45425,8.45055 12.48457,15.6315 3.01141,5.00475 5.09904,9.48731 5.63635,18.40733 -0.19054,4.86983 -1.80291,11.37577 -3.84796,17.17045 -1.15023,3.95682 -7.74128,13.34467 -11.97343,14.79413 -0.34889,6.54787 20.47159,3.25251 28.81633,2.18801 3.50506,-3.46553 6.24806,-9.28245 7.51916,-15.7143 -0.17472,-6.58187 -0.75751,-11.75454 -2.05061,-18.15408 -3.60107,-8.48112 -5.56595,-10.43727 -10.8134,-18.04789 -3.33591,-5.36708 -13.13381,-12.67079 -18.63868,-18.66717 -3.33509,-5.6045 -2.05584,-10.8169 -1.84055,-21.64311 z;  m 226.70181,284.9931 c 6.99045,6.5846 8.86168,13.09521 4.07934,20.39559 -3.29744,8.02529 -8.72452,18.34843 -5.30272,25.83848 2.5866,5.23695 14.46959,8.08163 14.26635,17.01551 -0.25788,5.50792 -6.20984,10.35476 -9.66575,13.59625 -4.77933,4.0781 -16.17374,10.45858 -18.85567,11.2034 1.43393,5.03561 17.80853,5.69811 28.81633,2.18801 3.50506,-3.46553 6.24806,-9.28245 9.61376,-13.32048 1.91987,-3.29036 2.98404,-8.81836 2.22535,-15.30301 -2.88634,-8.7502 -9.5114,-11.60345 -14.11055,-19.62249 -2.87999,-5.62491 0.92518,-11.10348 0.14608,-19.20614 0.71619,-6.48232 -1.04587,-19.05785 -11.21252,-22.78512 z;  m 218.43845,281.324 c -3.95082,8.75296 -5.87511,15.32733 -5.29178,24.03513 2.20515,8.39141 8.45425,8.45055 12.48457,15.6315 3.01141,5.00475 5.09904,9.48731 5.63635,18.40733 -0.19054,4.86983 -1.80291,11.37577 -3.84796,17.17045 -1.15023,3.95682 -7.74128,13.34467 -11.97343,14.79413 -0.34889,6.54787 20.47159,3.25251 28.81633,2.18801 3.50506,-3.46553 6.24806,-9.28245 7.51916,-15.7143 -0.17472,-6.58187 -0.75751,-11.75454 -2.05061,-18.15408 -3.60107,-8.48112 -5.56595,-10.43727 -10.8134,-18.04789 -3.33591,-5.36708 -13.13381,-12.67079 -18.63868,-18.66717 -3.33509,-5.6045 -2.05584,-10.8169 -1.84055,-21.64311 z"
             repeatCount="indefinite" />
        </path>
        <path
           sodipodi:insensitive="true"
           style="opacity:0.7;color:#000000;fill:none;stroke:#0b24fa;stroke-width:0.47421;stroke-miterlimit:4;stroke-opacity:1;stroke-dasharray:none;display:none"
           d="m 214.22,283 c -3.96,8.76 -5.88,15.33 -5.3,24.04 2.21,8.39 8.46,8.45 12.49,15.63 3.01,5.01 5.1,9.49 5.63,18.41 -0.19,4.87 -1.8,11.37 -3.84,17.17 -1.15,3.96 -7.74,13.34 -11.98,14.79 0.36,5.66 17.17,5.32 28.82,2.19 3.5,-3.47 6.25,-9.28 7.52,-15.71 -0.18,-6.59 -0.76,-11.76 -2.05,-18.16 -3.6,-8.48 -5.57,-10.44 -10.82,-18.05 -3.33,-5.36 -13.13,-12.67 -18.63,-18.66 -3.34,-5.61 -2.06,-10.82 -1.84,-21.65 z"
           id="Smoke2"
           inkscape:label="#path3845"
           inkscape:connector-curvature="0"
           sodipodi:nodetypes="cccccccccccc" />
        <path
           sodipodi:insensitive="true"
           sodipodi:nodetypes="cccccccccccc"
           inkscape:connector-curvature="0"
           inkscape:label="#path3845"
           id="Smoke3"
           d="m 226.7,284.99 c 6.99,6.59 8.86,13.1 4.08,20.4 -3.3,8.02 -8.72,18.35 -5.3,25.84 2.59,5.23 14.47,8.08 14.26,17.01 -0.25,5.51 -6.21,10.36 -9.66,13.6 -4.78,4.08 -16.17,10.46 -18.86,11.2 1.44,5.04 17.81,5.7 28.82,2.19 3.5,-3.47 6.25,-9.28 9.61,-13.32 1.92,-3.29 2.99,-8.82 2.23,-15.3 -2.89,-8.75 -9.51,-11.61 -14.11,-19.63 -2.88,-5.62 0.92,-11.1 0.14,-19.2 0.72,-6.48 -1.04,-19.06 -11.21,-22.79 z"
           style="opacity:0.7;color:#000000;fill:none;stroke:#110bfa;stroke-width:0.47421;stroke-miterlimit:4;stroke-opacity:1;stroke-dasharray:none;display:none" />
        <use
           height="600"
           width="1200"
           transform="matrix(0.76426,0,0,1.4014,56.176,-148.26)"
           id="use3607"
           xlink:href="#Smoke1"
           y="0"
           x="0" />
      </g>
    </g>
  </g>
  <g
     inkscape:groupmode="layer"
     id="layer3"
     inkscape:label="BackgroundWhite"
     transform="translate(0,300)"
     sodipodi:insensitive="true">
    <rect
       style="color:#000000;fill:none;stroke:#000003;stroke-width:0.5;stroke-linecap:round;stroke-linejoin:round;stroke-miterlimit:4;stroke-opacity:1;stroke-dasharray:none;stroke-dashoffset:0;marker:none;visibility:visible;display:inline;overflow:visible;enable-background:accumulate"
       id="rect3154"
       width="616.27"
       height="615.24"
       x="-5.1526"
       y="-302.87" />
  </g>
</svg>
