<?xml version="1.0" standalone="no"?>
<!DOCTYPE svg PUBLIC "-//W3C//DTD SVG 20010904//EN"
 "http://www.w3.org/TR/2001/REC-SVG-20010904/DTD/svg10.dtd">
<svg version="1.0" xmlns="http://www.w3.org/2000/svg"
 width="1500.000000pt" height="1500.000000pt" viewBox="0 0 1500.000000 1500.000000"
 preserveAspectRatio="xMidYMid meet">
<metadata>
Created by potrace 1.11, written by Peter Selinger 2001-2013
</metadata>
<g transform="translate(0.000000,1500.000000) scale(0.100000,-0.100000)"
fill="#000000" stroke="none">
<path d="M6984 14985 c-4 -8 -17 -10 -45 -5 -21 4 -39 5 -39 1 0 -3 -33 -7
-73 -8 -39 -1 -80 -4 -89 -7 -43 -14 -48 -15 -48 -5 0 6 -5 7 -12 3 -7 -4 -28
-9 -48 -10 -19 -2 -73 -8 -120 -14 -47 -7 -97 -13 -111 -14 -14 -2 -30 -5 -35
-8 -5 -3 -17 -4 -26 -3 -10 2 -18 -1 -18 -6 0 -6 -4 -8 -8 -5 -10 6 -143 -16
-159 -27 -6 -4 -15 -3 -18 3 -5 8 -11 7 -21 -1 -8 -6 -23 -9 -34 -6 -13 3 -20
0 -20 -9 0 -12 -4 -12 -20 -4 -11 6 -20 7 -20 3 0 -5 -11 -10 -26 -11 -14 -1
-34 -7 -45 -12 -14 -8 -19 -7 -19 2 0 9 -3 9 -12 0 -7 -7 -22 -12 -35 -12 -13
0 -23 -5 -23 -11 0 -5 -4 -8 -9 -5 -5 4 -33 1 -61 -5 -28 -6 -59 -12 -68 -14
-9 -2 -19 -4 -22 -5 -3 -1 -8 -2 -12 -1 -5 0 -8 -3 -8 -7 0 -5 -10 -8 -22 -7
-13 1 -30 -2 -38 -6 -13 -7 -177 -52 -239 -65 -14 -3 -28 -7 -33 -10 -7 -5
-29 -10 -66 -18 -8 -1 -17 -7 -20 -12 -4 -5 -19 -9 -34 -9 -15 1 -30 -5 -33
-13 -3 -7 -10 -10 -15 -7 -6 4 -17 1 -25 -5 -8 -7 -21 -10 -29 -7 -8 3 -16 1
-18 -4 -2 -6 -10 -11 -18 -13 -39 -8 -76 -20 -87 -29 -7 -5 -13 -6 -13 -2 0 4
-12 0 -26 -10 -18 -11 -24 -13 -19 -4 5 8 -1 5 -13 -5 -17 -14 -22 -16 -22 -5
0 11 -2 11 -10 -1 -5 -8 -13 -15 -17 -16 -4 0 -21 -6 -36 -12 -16 -7 -33 -10
-38 -6 -5 3 -9 0 -9 -5 0 -6 -6 -11 -14 -11 -7 0 -26 -7 -42 -14 -15 -8 -31
-13 -36 -10 -4 3 -8 -2 -8 -11 0 -9 -4 -14 -9 -10 -6 3 -33 -6 -62 -19 -28
-14 -56 -23 -60 -20 -5 3 -9 0 -9 -6 0 -6 -4 -8 -10 -5 -6 3 -10 1 -10 -4 0
-6 -6 -11 -13 -11 -7 0 -31 -9 -53 -19 -21 -11 -42 -17 -46 -14 -5 2 -8 -1 -8
-7 0 -7 -7 -10 -15 -6 -8 3 -15 2 -15 -3 0 -9 -51 -35 -62 -33 -5 1 -8 -3 -8
-9 0 -5 -4 -7 -10 -4 -5 3 -10 1 -10 -5 0 -6 -4 -8 -10 -5 -6 3 -10 1 -10 -5
0 -6 -4 -8 -10 -5 -5 3 -10 1 -10 -4 0 -6 -3 -10 -7 -9 -9 3 -75 -23 -83 -32
-6 -6 -49 -26 -65 -29 -5 -1 -17 -9 -26 -17 -9 -8 -19 -11 -22 -7 -4 3 -7 1
-7 -6 0 -7 -4 -9 -10 -6 -5 3 -10 2 -10 -3 0 -8 -80 -53 -100 -57 -3 0 -15 -6
-26 -13 -12 -6 -25 -8 -29 -4 -5 4 -5 1 -1 -5 6 -12 -5 -18 -26 -14 -5 0 -8
-3 -8 -8 0 -5 -16 -16 -35 -25 -19 -9 -35 -21 -35 -26 0 -6 -3 -9 -7 -8 -12 3
-83 -35 -83 -44 0 -4 -5 -8 -12 -8 -14 0 -162 -91 -166 -102 -2 -4 -8 -6 -13
-2 -5 3 -9 1 -9 -4 0 -5 -13 -15 -30 -22 -16 -7 -30 -15 -30 -19 0 -3 -23 -19
-50 -36 -28 -16 -50 -33 -50 -38 0 -4 -4 -6 -9 -2 -6 3 -14 -3 -20 -12 -6 -10
-11 -15 -11 -10 0 9 -139 -90 -157 -112 -7 -8 -13 -11 -13 -6 0 5 -11 -2 -25
-15 -14 -13 -25 -20 -25 -16 0 4 -11 -4 -24 -18 -13 -15 -26 -26 -30 -26 -4 0
-16 -9 -28 -20 -12 -10 -25 -17 -29 -15 -4 3 -10 -4 -14 -15 -6 -18 -10 -21
-30 -20 -10 1 -33 -25 -29 -31 2 -4 -8 -10 -22 -13 -15 -4 -24 -10 -20 -13 3
-3 -8 -16 -26 -27 -72 -48 -83 -56 -75 -56 4 0 2 -6 -5 -14 -7 -8 -16 -12 -20
-10 -4 3 -11 -4 -17 -13 -6 -10 -11 -14 -11 -9 0 5 -9 -3 -21 -18 -11 -14 -28
-26 -36 -26 -9 0 -13 -3 -10 -6 3 -4 -16 -24 -43 -46 -28 -22 -50 -45 -50 -51
0 -5 -3 -8 -6 -5 -3 3 -25 -13 -50 -37 -24 -24 -44 -41 -44 -38 0 2 -12 -10
-27 -29 -16 -18 -32 -35 -36 -37 -5 -2 -23 -17 -40 -34 -18 -17 -33 -30 -34
-29 -2 1 -3 0 -4 -2 -1 -11 -75 -81 -82 -78 -4 2 -7 0 -7 -5 0 -4 -22 -32 -49
-60 -27 -29 -48 -53 -46 -53 3 0 -6 -10 -18 -23 -12 -13 -23 -22 -25 -21 -2 1
-22 -19 -45 -44 -23 -26 -55 -59 -71 -74 -16 -16 -25 -28 -20 -28 5 -1 -2 -7
-16 -15 -14 -8 -21 -14 -16 -15 5 0 -9 -18 -32 -40 -22 -22 -38 -40 -35 -40 3
0 -6 -11 -21 -25 -15 -14 -24 -25 -20 -25 4 0 -5 -10 -20 -21 -15 -12 -25 -23
-22 -26 7 -7 -18 -32 -26 -26 -7 4 -11 -12 -5 -21 1 -2 -11 -14 -26 -26 -16
-13 -26 -29 -23 -36 3 -8 2 -13 -2 -13 -20 3 -33 -2 -27 -11 3 -5 -1 -10 -10
-10 -9 0 -13 -4 -10 -10 3 -5 1 -10 -6 -10 -7 0 -10 -2 -7 -5 3 -3 -9 -22 -26
-41 -17 -20 -31 -38 -31 -42 0 -3 -15 -22 -33 -42 -17 -19 -35 -43 -38 -53 -3
-9 -10 -15 -15 -12 -5 4 -9 -1 -9 -9 0 -9 -9 -25 -20 -36 -11 -11 -21 -23 -22
-27 -2 -5 -7 -7 -13 -5 -5 2 -7 0 -2 -4 4 -4 0 -16 -10 -26 -9 -10 -13 -18 -9
-18 4 0 -3 -11 -16 -25 -37 -39 -49 -54 -46 -59 2 -3 -4 -13 -12 -23 -26 -31
-120 -178 -119 -186 0 -5 -11 -19 -25 -32 -13 -12 -22 -26 -18 -29 3 -4 1 -10
-5 -14 -6 -4 -13 -14 -15 -22 -2 -8 -11 -21 -20 -28 -10 -7 -18 -22 -18 -33 0
-11 -4 -18 -9 -15 -5 3 -12 -5 -15 -19 -4 -14 -11 -25 -17 -25 -6 0 -8 -4 -5
-8 3 -5 -3 -18 -12 -28 -10 -10 -24 -34 -31 -51 -7 -18 -18 -33 -23 -33 -5 0
-7 -4 -4 -9 3 -4 -6 -23 -19 -41 -13 -18 -22 -36 -20 -40 3 -5 -2 -11 -11 -14
-9 -4 -14 -13 -10 -21 3 -8 1 -15 -4 -15 -5 0 -14 -16 -21 -35 -7 -19 -17 -35
-21 -35 -4 0 -8 -5 -8 -10 0 -6 -11 -28 -24 -49 -14 -21 -22 -42 -19 -45 4 -3
1 -6 -5 -6 -7 0 -12 -3 -11 -7 2 -15 -13 -53 -21 -53 -5 0 -12 -15 -15 -32 -4
-18 -12 -36 -17 -39 -6 -4 -11 -18 -11 -32 -1 -14 -5 -23 -10 -20 -8 5 -31
-52 -25 -62 1 -4 -4 -11 -14 -16 -9 -5 -15 -17 -14 -27 2 -9 -6 -25 -17 -34
-11 -10 -16 -18 -11 -18 5 0 2 -5 -6 -10 -13 -9 -13 -10 0 -10 9 0 11 -3 5 -8
-10 -6 -30 -50 -59 -130 -7 -18 -17 -29 -22 -25 -5 5 -6 4 -2 0 9 -12 -11 -67
-24 -67 -6 0 -5 -6 2 -15 9 -10 9 -15 1 -15 -6 0 -11 -7 -11 -15 0 -8 -5 -15
-11 -15 -5 0 -8 -4 -5 -8 3 -5 -1 -21 -9 -36 -8 -15 -17 -42 -21 -61 -3 -18
-13 -36 -22 -40 -13 -5 -14 -8 -3 -14 10 -7 10 -11 -2 -22 -7 -8 -12 -20 -9
-27 2 -6 -1 -12 -7 -12 -5 0 -8 -9 -6 -19 2 -11 -2 -25 -10 -31 -7 -6 -12 -19
-10 -28 1 -9 -2 -20 -7 -23 -5 -3 -11 -19 -14 -34 -3 -16 -9 -34 -13 -40 -5
-5 -7 -18 -6 -27 2 -10 -1 -18 -6 -18 -5 0 -9 -8 -9 -17 0 -10 -7 -30 -14 -45
-9 -17 -11 -30 -5 -34 6 -3 5 -11 -3 -21 -6 -8 -13 -20 -15 -27 -12 -57 -40
-142 -48 -148 -6 -5 -4 -8 5 -8 13 -1 13 -2 0 -13 -8 -7 -15 -16 -15 -22 -2
-39 -19 -105 -27 -105 -5 0 -7 -4 -4 -9 3 -4 -1 -35 -10 -67 -9 -33 -17 -68
-19 -79 -2 -11 -15 -73 -29 -138 -14 -65 -28 -132 -30 -150 -3 -18 -6 -32 -7
-32 -1 0 -2 -14 -3 -30 -1 -17 -5 -35 -8 -40 -3 -6 -9 -37 -13 -70 -3 -32 -11
-67 -16 -76 -6 -12 -5 -20 1 -24 8 -5 8 -11 0 -19 -5 -7 -11 -43 -13 -79 -1
-37 -5 -67 -9 -67 -5 0 -16 -73 -18 -117 0 -7 0 -19 0 -25 -2 -76 -11 -143
-18 -146 -6 -2 -6 -17 -2 -37 4 -19 5 -35 1 -35 -11 0 -16 -200 -15 -660 1
-278 5 -471 11 -497 7 -26 7 -43 2 -43 -6 0 -6 -8 0 -18 7 -13 7 -22 0 -29 -8
-8 -7 -13 0 -17 6 -4 11 -29 11 -56 0 -27 5 -52 10 -55 7 -4 7 -13 0 -26 -6
-11 -8 -25 -4 -31 7 -12 10 -28 18 -111 2 -21 7 -41 10 -44 3 -3 1 -12 -5 -19
-7 -8 -7 -14 1 -19 5 -3 10 -22 10 -41 0 -20 5 -34 12 -34 9 0 9 -3 1 -11 -11
-11 -11 -17 3 -56 3 -10 7 -40 9 -68 2 -27 8 -51 14 -53 9 -3 9 -7 0 -18 -7
-9 -8 -14 -1 -14 5 0 8 -9 5 -20 -3 -11 -1 -20 5 -20 6 0 8 -8 5 -19 -3 -10 0
-22 5 -25 6 -3 8 -15 5 -26 -3 -11 0 -26 6 -34 9 -11 9 -16 0 -21 -7 -5 -8
-10 -1 -14 6 -3 13 -22 15 -41 3 -19 6 -35 7 -35 3 0 12 -57 14 -80 0 -11 4
-22 8 -25 4 -3 8 -21 10 -39 1 -18 6 -35 10 -37 4 -3 8 -16 8 -30 0 -13 5 -24
10 -24 7 0 7 -6 0 -20 -7 -14 -7 -20 0 -20 5 0 10 -8 10 -17 0 -16 13 -64 31
-110 6 -16 5 -23 -4 -23 -9 0 -9 -2 1 -8 7 -5 14 -17 17 -28 11 -50 37 -141
44 -159 14 -32 34 -104 34 -120 0 -8 3 -15 7 -15 3 0 12 -22 19 -50 7 -27 16
-50 20 -50 4 0 7 -8 8 -17 3 -44 8 -63 15 -63 4 0 8 -9 8 -19 0 -11 4 -22 9
-26 5 -3 13 -20 16 -38 4 -17 14 -48 22 -67 18 -42 27 -64 43 -108 7 -17 15
-32 19 -32 4 0 8 -9 9 -20 4 -43 6 -50 14 -50 4 0 8 -5 8 -10 0 -6 9 -29 20
-52 11 -22 17 -45 14 -49 -3 -5 -1 -9 4 -9 8 0 21 -26 26 -52 0 -4 9 -16 18
-27 11 -13 14 -23 7 -27 -7 -4 -8 -9 -1 -13 15 -9 62 -108 55 -115 -4 -3 -1
-6 5 -6 7 0 12 -9 12 -20 0 -11 5 -20 10 -20 6 0 10 -9 10 -19 0 -11 3 -21 8
-23 9 -4 46 -80 44 -90 -1 -5 3 -8 9 -8 6 0 9 -6 6 -14 -3 -8 1 -17 9 -20 9
-3 12 -10 9 -16 -3 -5 -2 -10 3 -10 6 0 25 -32 43 -70 18 -39 37 -70 41 -70 5
0 6 -4 3 -10 -3 -5 -1 -10 5 -10 6 0 8 -4 5 -10 -3 -5 -1 -10 5 -10 6 0 8 -5
5 -10 -3 -6 -1 -10 5 -10 6 0 8 -4 5 -10 -3 -5 -1 -10 4 -10 6 0 11 -6 11 -14
0 -7 7 -19 15 -26 8 -7 13 -16 10 -20 -3 -4 2 -11 11 -14 9 -3 14 -12 11 -19
-3 -8 4 -19 14 -25 10 -7 19 -20 19 -31 0 -10 9 -26 20 -36 11 -10 20 -23 20
-30 0 -6 8 -20 18 -31 19 -21 46 -75 44 -86 -1 -5 5 -8 14 -8 8 0 13 -4 9 -9
-3 -5 3 -16 13 -23 11 -7 20 -15 20 -18 1 -16 29 -68 45 -82 10 -9 18 -19 17
-23 -1 -4 7 -17 18 -30 11 -13 26 -34 33 -47 6 -12 15 -25 18 -28 3 -3 12 -17
20 -32 8 -16 16 -26 19 -23 3 2 12 -9 21 -25 18 -32 57 -85 83 -111 9 -10 14
-20 11 -23 -4 -3 -1 -6 5 -6 7 0 12 -6 12 -14 0 -8 7 -17 16 -20 8 -3 13 -10
9 -15 -3 -5 4 -12 15 -16 11 -4 18 -10 16 -14 -3 -4 13 -27 34 -51 21 -24 37
-47 34 -51 -2 -4 5 -10 16 -14 11 -4 18 -11 15 -16 -4 -5 2 -9 11 -9 10 0 15
-3 11 -6 -6 -6 2 -17 41 -59 12 -13 22 -29 22 -35 0 -6 4 -9 9 -5 5 3 12 -4
16 -15 3 -11 11 -20 16 -20 6 0 7 -4 4 -10 -3 -5 0 -10 7 -10 7 0 26 -18 41
-40 16 -22 33 -40 38 -40 5 0 9 -5 9 -11 0 -6 11 -20 24 -30 14 -11 28 -28 31
-39 4 -11 12 -20 20 -20 8 0 17 -9 20 -20 3 -11 12 -20 20 -20 8 0 17 -9 20
-20 3 -11 13 -20 21 -20 8 0 13 -4 9 -9 -3 -5 4 -12 15 -16 11 -3 20 -11 20
-16 0 -6 13 -24 30 -42 16 -18 30 -36 30 -40 0 -5 4 -5 10 -2 5 3 10 -2 10
-11 0 -10 3 -15 6 -12 7 7 54 -39 54 -53 0 -6 4 -8 9 -4 5 3 12 -4 16 -15 3
-11 11 -20 17 -20 6 0 23 -13 39 -29 15 -16 30 -27 33 -23 3 3 6 -2 6 -11 0
-8 9 -19 20 -22 11 -3 20 -13 20 -21 0 -8 4 -14 8 -14 8 0 52 -38 123 -106 20
-18 42 -34 48 -34 7 0 9 -4 6 -10 -3 -5 1 -10 10 -10 9 0 13 -4 10 -10 -3 -5
2 -10 12 -10 10 0 27 -14 38 -30 11 -16 25 -30 31 -30 6 0 35 -22 64 -49 30
-28 58 -47 62 -45 4 3 8 -2 8 -11 0 -9 4 -13 10 -10 5 3 10 -1 10 -10 0 -9 5
-13 10 -10 6 3 13 -1 16 -9 3 -9 12 -16 20 -16 8 0 19 -9 26 -20 7 -11 18 -20
25 -20 7 0 13 -4 13 -10 0 -5 5 -10 11 -10 7 0 20 -10 30 -22 11 -11 19 -18
19 -14 0 4 12 -5 27 -19 15 -14 34 -25 41 -25 7 0 10 -4 7 -10 -3 -5 -1 -10 4
-10 10 0 37 -19 69 -50 9 -8 17 -13 18 -10 1 3 14 -5 28 -17 14 -13 29 -22 34
-21 7 3 36 -19 73 -54 9 -9 20 -14 23 -10 3 3 6 0 6 -6 0 -7 7 -12 15 -12 9 0
18 -7 21 -15 4 -8 14 -15 24 -15 10 0 20 -7 24 -15 3 -8 12 -15 21 -15 8 0 15
-4 15 -10 0 -5 5 -10 10 -10 6 0 28 -11 49 -24 21 -14 42 -22 47 -18 4 4 5 3
2 -3 -7 -13 11 -29 37 -33 10 -2 25 -11 32 -20 7 -10 13 -12 13 -7 0 7 3 7 8
0 9 -12 61 -44 85 -52 9 -3 17 -9 17 -13 0 -5 16 -14 35 -20 19 -6 33 -16 30
-21 -5 -8 8 -11 32 -8 3 0 10 -6 15 -15 5 -9 13 -14 19 -11 5 4 9 1 9 -4 0 -6
6 -11 14 -11 8 0 16 -4 18 -9 1 -5 12 -11 23 -13 11 -1 22 -6 25 -9 3 -4 24
-16 47 -28 24 -12 43 -26 43 -31 0 -5 7 -7 15 -4 8 4 15 1 15 -5 0 -6 3 -10 7
-9 9 1 46 -13 53 -21 3 -3 16 -12 29 -19 19 -11 22 -11 16 0 -3 7 2 4 12 -7
10 -11 29 -22 43 -23 14 -2 27 -8 28 -13 2 -5 8 -7 13 -3 5 3 12 -1 15 -10 3
-8 14 -13 24 -11 10 2 21 -3 24 -11 3 -8 14 -14 25 -14 11 0 23 -5 26 -10 4
-6 11 -8 16 -5 5 4 9 1 9 -4 0 -6 3 -10 7 -9 5 1 26 -6 48 -16 93 -42 229 -96
242 -96 7 0 16 -7 20 -16 4 -12 7 -13 14 -3 6 11 9 10 14 -3 4 -9 13 -14 20
-12 7 3 16 0 20 -5 3 -6 11 -9 16 -6 5 4 9 0 9 -7 0 -9 3 -9 10 2 8 13 10 12
10 -3 0 -10 4 -16 9 -13 5 3 21 -1 37 -9 15 -7 31 -12 36 -9 4 3 8 0 8 -5 0
-6 9 -11 21 -11 11 0 30 -5 42 -12 12 -7 27 -13 32 -14 37 -9 54 -14 85 -25
19 -7 44 -16 55 -20 11 -4 39 -13 63 -20 23 -7 42 -17 42 -22 0 -5 6 -4 14 2
8 7 17 8 20 3 3 -5 27 -15 53 -22 27 -6 58 -17 70 -22 12 -6 36 -11 52 -12 17
-1 31 -4 31 -8 0 -5 11 -8 24 -8 14 0 28 -4 31 -10 3 -5 21 -10 39 -10 18 0
36 -3 40 -7 8 -8 28 -12 73 -16 18 -1 33 -5 33 -9 0 -5 9 -8 20 -8 21 0 125
-26 139 -35 5 -3 13 0 17 6 5 8 8 8 13 0 4 -6 25 -14 47 -16 81 -10 95 -14
108 -24 9 -7 16 -7 24 1 9 9 12 9 12 0 0 -7 3 -11 8 -11 4 1 9 0 12 -1 3 -1
19 -3 35 -4 50 -5 129 -17 145 -23 8 -3 40 -7 70 -10 30 -2 56 -8 58 -13 3 -9
13 -6 43 12 3 1 12 -2 20 -9 8 -6 37 -12 64 -14 28 -1 55 -6 62 -11 7 -5 14
-5 18 2 3 6 12 7 18 3 15 -9 11 -9 194 -23 84 -6 173 -10 197 -9 25 2 48 0 52
-4 10 -9 734 -9 734 1 0 4 44 7 98 8 106 0 182 5 195 12 5 2 32 5 60 7 59 2
192 14 222 19 11 2 49 7 85 11 36 4 70 10 75 14 6 4 33 7 62 7 28 -1 49 2 46
7 -3 6 45 12 70 8 4 0 7 3 7 7 0 4 16 7 35 7 19 -1 35 1 35 4 0 3 13 7 28 8
30 2 52 6 119 23 24 5 46 10 50 9 5 -1 11 0 16 1 11 4 17 5 82 19 33 7 64 16
70 19 5 4 17 7 25 7 38 2 99 18 95 25 -2 4 7 5 20 2 14 -2 25 0 25 4 0 5 14
10 31 11 17 1 36 6 43 11 6 4 18 8 26 7 8 -1 24 3 35 9 11 5 29 11 40 11 11 1
33 7 48 13 16 7 34 12 41 12 7 0 16 3 20 7 6 7 24 11 59 15 9 1 17 6 17 10 0
4 13 8 28 8 16 0 32 3 36 8 4 4 11 7 14 8 24 2 98 30 104 39 4 5 8 7 8 3 0 -3
28 4 62 18 34 13 63 22 66 19 2 -2 11 2 19 10 8 8 25 15 39 15 13 0 24 4 24
10 0 5 3 9 8 8 15 -4 92 26 92 35 0 6 3 8 6 4 4 -3 19 0 34 8 15 8 30 11 34 8
3 -4 6 0 6 7 0 7 3 10 6 7 4 -4 19 0 33 7 48 26 117 56 129 56 7 0 12 5 12 11
0 5 4 8 9 5 10 -7 72 22 83 38 4 6 8 8 8 3 0 -4 27 6 60 23 33 17 60 27 60 24
0 -4 9 1 20 11 11 10 23 15 27 12 3 -4 13 1 22 11 9 9 25 19 36 20 11 2 22 7
25 10 6 9 92 49 104 50 5 0 13 7 18 15 4 9 22 18 39 22 17 4 33 13 36 21 3 8
14 14 24 14 10 0 19 5 19 11 0 5 4 8 9 5 5 -3 14 1 21 9 7 8 20 15 30 15 10 0
21 7 24 16 3 9 13 14 20 11 8 -3 17 1 20 9 3 7 23 21 46 30 22 9 40 20 40 26
0 5 4 7 9 4 5 -4 11 -2 13 2 4 9 110 71 118 69 10 -4 38 28 32 37 -3 5 0 6 6
2 6 -3 13 -2 17 4 4 6 10 8 15 5 4 -3 11 2 14 11 4 9 9 14 12 11 4 -3 18 5 32
19 15 13 31 24 35 24 5 0 15 7 24 15 8 8 19 13 24 10 5 -4 9 1 9 10 0 9 5 15
12 13 7 -3 24 7 38 22 14 15 32 24 39 22 8 -3 11 0 7 6 -3 6 3 14 15 17 12 4
30 14 41 24 11 9 29 24 40 34 12 9 27 17 35 17 8 0 11 5 8 10 -3 6 3 10 15 10
12 0 19 4 15 9 -3 5 3 12 12 15 10 3 33 20 51 36 17 17 32 28 32 25 0 -3 10 3
22 15 12 11 26 20 30 20 5 0 7 4 4 9 -3 5 6 12 19 15 14 4 23 11 20 16 -3 6
-1 10 6 10 6 0 36 21 65 46 30 25 54 43 54 40 0 -3 16 11 35 31 19 20 35 33
35 30 0 -3 18 11 39 32 22 22 42 36 45 33 3 -3 6 2 6 11 0 9 7 17 15 17 8 0
15 4 15 9 0 6 13 18 29 27 17 10 28 21 25 26 -3 4 -2 8 3 8 4 0 25 16 46 35
20 18 37 31 37 28 0 -7 27 24 49 56 8 11 18 18 22 15 4 -2 11 5 14 17 4 11 9
18 12 16 7 -8 173 159 173 174 0 7 3 9 7 6 3 -4 15 5 25 20 10 16 18 24 18 20
0 -5 16 10 35 33 19 23 35 38 35 33 1 -4 7 3 15 17 8 14 14 21 15 15 0 -5 9 5
20 23 11 17 25 32 32 32 6 0 8 3 5 6 -7 7 30 44 45 44 4 0 8 5 8 11 0 7 11 22
26 35 14 13 22 24 19 24 -3 0 0 6 7 14 7 8 16 12 19 10 4 -2 10 8 13 22 4 15
10 24 13 20 7 -7 39 35 35 47 -1 4 5 7 13 7 8 0 15 4 15 9 0 5 8 17 18 27 9
10 17 21 17 26 0 4 3 7 8 6 4 -2 16 11 26 27 10 17 30 42 44 57 14 15 22 29
19 32 -3 3 0 6 6 6 6 0 14 9 17 20 4 11 11 18 16 15 5 -4 9 0 9 8 0 7 8 22 17
33 34 37 73 93 73 104 0 6 5 8 10 5 6 -3 10 0 10 8 0 8 9 22 20 32 11 10 18
20 15 23 -2 2 6 13 18 23 12 10 18 18 14 19 -4 0 4 12 18 27 14 16 28 36 31
46 3 9 10 17 15 17 5 0 9 7 9 15 0 8 5 15 10 15 6 0 10 7 10 15 0 8 4 15 9 15
5 0 12 8 16 19 3 10 14 29 25 41 11 12 17 27 13 33 -3 6 -1 7 5 3 7 -4 14 3
18 19 3 13 10 22 15 19 5 -3 9 2 9 10 0 8 7 22 16 30 8 9 13 20 10 25 -3 5 1
11 9 15 8 3 15 12 15 20 0 8 6 19 13 23 6 4 26 34 42 65 17 32 33 58 38 58 4
0 7 7 7 15 0 8 5 15 11 15 5 0 7 5 4 10 -3 6 -1 10 4 10 6 0 11 7 11 16 0 8 7
22 16 31 8 9 13 22 10 30 -3 8 -2 12 3 9 4 -3 16 12 26 34 10 22 22 40 27 40
5 0 7 4 3 9 -3 6 3 14 12 20 10 6 15 11 10 11 -4 0 6 26 22 59 17 32 27 62 23
65 -3 4 2 4 11 0 10 -3 17 -3 16 2 -4 16 13 64 22 64 5 0 9 6 9 13 0 8 13 38
29 67 16 30 27 58 25 62 -3 4 0 8 5 8 6 0 11 9 11 20 0 11 5 20 12 20 6 0 9 2
6 5 -3 3 7 31 23 62 16 31 26 60 23 64 -3 5 1 9 9 9 10 0 13 7 10 20 -3 12 0
20 6 20 7 0 9 5 6 10 -3 6 -1 10 5 10 6 0 8 5 5 10 -3 6 -1 10 6 10 7 0 9 3 6
6 -3 4 -1 16 5 28 7 11 13 23 13 26 9 37 19 60 26 60 5 0 6 7 3 15 -4 8 -1 15
5 15 6 0 10 3 9 8 -3 9 22 83 32 97 10 14 35 88 32 98 -1 4 3 7 10 7 6 0 8 3
5 7 -4 3 -2 12 4 20 6 7 9 13 6 13 -4 0 2 20 13 45 11 25 17 45 13 45 -3 0 -1
6 4 13 5 6 16 32 23 57 7 25 17 50 20 55 8 11 24 86 22 98 -1 4 2 7 7 7 4 0
14 27 21 60 7 33 16 60 21 60 5 0 6 7 3 15 -4 8 -1 15 6 15 10 0 10 3 0 15 -7
9 -8 15 -2 15 6 0 13 18 17 40 4 22 10 38 14 36 4 -3 6 8 5 25 -1 16 2 32 7
35 5 3 7 10 4 15 -4 5 -2 9 3 9 6 0 8 9 5 20 -3 11 -1 20 3 20 8 0 14 33 17
92 1 9 5 14 9 12 4 -3 9 7 10 23 1 15 2 36 2 46 1 10 7 21 13 25 8 5 9 13 3
22 -5 9 -5 19 2 27 6 7 11 26 13 41 1 16 5 34 9 40 4 7 5 12 3 12 -2 0 2 26
10 58 12 49 24 130 26 170 0 6 3 12 6 12 3 0 6 19 6 43 0 23 3 47 7 52 5 9 19
102 21 148 1 9 5 17 10 17 5 0 4 6 -2 14 -8 10 -9 16 -1 21 6 3 8 10 5 15 -3
5 -1 12 5 15 8 5 8 11 1 19 -7 8 -6 21 4 39 8 15 10 27 5 27 -5 0 -5 13 0 30
5 19 5 32 -2 36 -7 4 -7 9 0 13 6 4 12 34 13 69 1 34 6 62 11 62 5 0 4 9 -2
20 -8 15 -8 20 2 20 9 0 9 3 0 12 -7 7 -8 17 -1 30 5 10 7 18 3 18 -3 0 -2 6
4 13 13 16 8 1016 -6 1075 -5 23 -6 45 -1 48 4 2 4 17 -2 31 -5 15 -8 32 -5
40 3 7 2 13 -2 13 -4 0 -7 25 -6 55 0 31 -3 58 -8 61 -4 3 -3 14 2 25 8 13 7
19 0 19 -6 0 -8 5 -5 10 3 6 3 16 -1 22 -5 7 -7 27 -5 45 1 19 -2 33 -9 33 -7
0 -8 6 0 19 5 11 6 22 2 25 -4 2 -9 24 -11 47 -1 23 -6 50 -12 60 -5 11 -6 20
0 24 6 3 4 19 -4 39 -8 18 -12 35 -10 38 4 3 -17 132 -26 161 -4 12 -9 49 -13
80 -2 21 -6 40 -10 44 -3 3 -6 18 -6 33 0 15 -3 30 -7 33 -6 7 -15 58 -16 100
-1 9 -4 17 -8 17 -4 0 -9 15 -12 33 -3 17 -9 48 -13 67 -4 19 -7 43 -8 53 0 9
-4 17 -9 17 -5 0 -7 7 -4 15 4 8 1 17 -4 21 -6 3 -9 15 -6 25 3 11 1 19 -4 19
-5 0 -9 8 -9 17 0 17 -5 35 -40 146 -12 38 -19 71 -16 75 3 3 0 15 -7 26 -8
12 -19 44 -27 71 -7 28 -17 55 -21 61 -5 6 -10 19 -12 30 -9 51 -29 104 -38
104 -6 0 -8 4 -4 9 6 11 -34 124 -46 129 -4 2 -5 10 -2 18 3 8 -2 23 -11 33
-14 15 -14 20 -4 24 8 3 8 6 2 6 -7 1 -18 21 -25 46 -7 25 -17 45 -21 45 -4 0
-8 11 -8 25 0 14 -5 25 -12 25 -6 0 -9 3 -5 6 3 4 -3 24 -14 46 -11 21 -17 43
-14 47 3 5 0 11 -5 13 -6 2 -12 13 -13 25 0 12 -5 19 -9 17 -4 -3 -8 2 -8 10
0 9 -4 16 -9 16 -5 0 -7 9 -4 20 3 12 0 20 -6 20 -7 0 -9 5 -6 10 3 6 1 10 -4
10 -6 0 -11 9 -11 20 0 11 -5 20 -11 20 -5 0 -8 4 -5 9 3 4 -1 17 -9 27 -8 10
-15 26 -15 35 0 8 -8 24 -17 35 -10 11 -19 25 -20 31 -1 6 -16 41 -33 77 -16
36 -31 69 -32 74 -1 4 -10 16 -20 26 -10 11 -18 28 -18 38 0 10 -6 21 -13 24
-8 3 -14 11 -15 19 -1 8 -3 22 -4 30 -1 8 -4 15 -8 15 -4 0 -24 33 -44 73 -21
39 -44 77 -50 82 -7 6 -12 18 -10 28 1 9 -1 17 -5 17 -7 0 -50 71 -53 87 -1 5
-12 19 -24 32 -13 14 -21 28 -18 33 3 4 0 8 -5 8 -6 0 -11 7 -11 16 0 9 -5 12
-12 8 -6 -4 -8 -3 -5 3 3 5 -5 26 -18 46 -14 20 -25 39 -25 42 0 3 -9 15 -20
27 -11 12 -20 29 -20 37 0 9 -9 22 -21 29 -12 7 -19 16 -16 19 3 2 -3 13 -14
24 -11 11 -17 25 -13 31 4 6 3 8 -3 5 -9 -6 -38 40 -35 55 1 4 -7 10 -18 13
-11 4 -18 10 -15 14 2 5 -7 21 -20 37 -14 16 -25 34 -25 39 0 6 -9 17 -20 25
-11 8 -20 20 -20 27 0 7 -4 13 -10 13 -5 0 -10 7 -10 15 0 8 -4 15 -10 15 -5
0 -10 7 -10 16 0 8 -4 12 -10 9 -5 -3 -10 1 -10 9 0 8 -8 20 -17 25 -10 6 -14
11 -9 11 5 0 -1 9 -14 20 -13 11 -19 20 -15 20 4 0 -4 11 -19 25 -14 13 -26
28 -26 33 0 5 -13 23 -30 40 -16 18 -30 36 -30 42 0 5 -7 10 -15 10 -8 0 -14
3 -14 8 3 20 -2 32 -16 32 -8 0 -15 9 -15 20 0 11 -7 20 -15 20 -8 0 -15 4
-15 8 0 5 -12 22 -27 40 -16 17 -39 45 -53 62 -14 18 -49 57 -77 87 -29 31
-53 60 -53 65 0 5 -4 7 -8 4 -4 -2 -14 9 -21 25 -7 16 -16 27 -20 24 -5 -2
-14 7 -21 20 -7 14 -19 25 -26 25 -7 0 -16 9 -19 20 -4 11 -11 18 -16 15 -5
-4 -9 -3 -9 2 0 4 -18 27 -39 50 -22 23 -38 43 -36 45 2 1 -12 14 -31 28 -18
14 -36 33 -39 43 -4 9 -12 17 -18 17 -7 0 -21 13 -31 29 -11 16 -25 27 -31 25
-6 -3 -17 7 -25 21 -7 14 -17 25 -21 25 -12 0 -58 48 -51 54 3 3 -2 6 -12 6
-9 0 -15 4 -11 9 3 5 -4 12 -14 16 -11 3 -32 20 -46 36 -14 17 -25 28 -25 24
0 -3 -11 6 -25 20 -14 14 -29 25 -34 25 -4 0 -14 11 -21 25 -7 13 -17 22 -22
19 -4 -3 -11 2 -14 10 -3 9 -13 16 -21 16 -8 0 -11 5 -8 10 3 6 -1 10 -9 10
-9 0 -16 7 -16 16 0 8 -4 13 -8 10 -5 -3 -21 8 -36 25 -15 16 -34 29 -42 29
-8 0 -14 6 -14 13 -1 6 -21 25 -45 40 -25 16 -45 33 -45 38 0 5 -4 9 -10 9
-10 0 -39 21 -77 58 -13 12 -31 22 -40 22 -9 0 -13 3 -10 7 6 5 -54 53 -67 53
-3 0 -19 13 -36 29 -18 16 -44 35 -58 42 -14 8 -37 24 -50 36 -14 13 -28 20
-33 18 -4 -3 -10 4 -14 15 -4 11 -10 18 -15 15 -5 -3 -13 3 -19 12 -8 14 -10
14 -11 3 0 -10 -5 -7 -16 8 -8 12 -22 22 -30 22 -8 0 -17 6 -20 14 -3 8 -16
17 -30 20 -13 4 -24 11 -24 16 0 6 -7 10 -15 10 -8 0 -15 5 -15 10 0 6 -5 10
-11 10 -6 0 -30 14 -54 30 -24 17 -48 30 -54 30 -6 0 -11 5 -11 10 0 6 -4 10
-9 10 -6 0 -30 14 -54 30 -25 17 -50 30 -56 30 -6 0 -11 5 -11 12 0 6 -3 8 -6
5 -4 -4 -14 1 -23 11 -9 10 -23 17 -31 17 -8 0 -23 8 -32 19 -10 10 -18 16
-18 12 0 -4 -13 2 -29 13 -15 11 -30 18 -33 16 -3 -3 -13 4 -23 15 -10 11 -26
20 -36 20 -10 0 -23 8 -28 18 -6 9 -11 14 -11 9 0 -4 -13 -1 -30 8 -16 9 -30
13 -30 10 0 -3 -10 3 -22 15 -12 11 -28 20 -35 20 -7 0 -13 5 -13 10 0 6 -9
10 -20 10 -11 0 -20 4 -20 8 0 8 -94 45 -106 42 -4 -1 -11 5 -16 14 -5 9 -17
16 -27 16 -9 0 -27 9 -39 20 -12 11 -23 20 -24 18 -2 -1 -14 2 -28 6 -14 5
-28 8 -32 7 -5 -1 -8 4 -8 10 0 5 -4 8 -9 5 -5 -3 -14 1 -21 9 -7 8 -16 13
-20 10 -5 -3 -11 -1 -15 5 -3 5 -15 10 -26 10 -10 0 -19 5 -19 10 0 6 -11 10
-24 10 -13 0 -26 5 -28 11 -2 6 -16 12 -31 12 -15 1 -27 5 -27 9 0 3 -17 12
-37 19 -21 7 -48 19 -61 27 -12 8 -25 12 -28 9 -3 -3 -21 3 -40 14 -19 10 -43
19 -54 19 -11 0 -20 4 -20 9 0 6 -9 8 -20 6 -11 -2 -20 0 -20 5 0 8 -56 28
-105 37 -11 2 -24 8 -29 13 -6 6 -19 10 -31 10 -12 0 -30 6 -40 14 -11 8 -25
12 -32 9 -7 -3 -13 1 -13 8 0 7 -3 10 -6 6 -3 -3 -31 3 -62 14 -31 11 -62 17
-69 15 -6 -3 -13 -1 -15 5 -2 5 -12 11 -23 14 -11 2 -34 8 -52 14 -17 5 -34 7
-37 3 -3 -3 -6 0 -6 6 0 7 -11 12 -25 12 -14 0 -25 3 -25 8 0 4 -17 8 -37 9
-20 1 -39 5 -42 10 -3 4 -19 9 -36 11 -16 1 -37 5 -45 9 -8 3 -24 7 -36 8 -12
1 -30 5 -40 10 -23 10 -42 15 -69 19 -71 11 -105 20 -105 28 0 5 -9 4 -19 -2
-11 -5 -21 -6 -23 -1 -2 5 -21 12 -43 15 -84 13 -100 17 -105 26 -3 5 -12 5
-19 0 -8 -4 -21 -5 -30 0 -40 19 -79 27 -95 18 -9 -5 -16 -5 -16 0 0 5 -15 9
-32 10 -18 0 -34 5 -36 11 -2 6 -15 6 -33 1 -16 -5 -29 -5 -29 -1 0 4 -6 8
-12 8 -42 3 -98 12 -107 17 -6 4 -11 2 -11 -5 0 -10 -3 -10 -12 -1 -7 7 -29
12 -49 12 -21 0 -41 5 -44 10 -4 6 -11 8 -16 5 -17 -11 -49 -14 -54 -4 -4 5
-32 9 -63 9 -31 1 -76 5 -99 9 -25 5 -43 5 -43 -1 0 -5 -9 -4 -19 2 -14 7 -22
7 -27 -1 -4 -8 -9 -7 -15 2 -12 19 -1048 23 -1055 4z"/>
</g>
</svg>
